<svg width="54" height="53" viewBox="0 0 54 53" fill="none" xmlns="http://www.w3.org/2000/svg">
<path d="M8.12256 7.55124V15.1023H15.6736V7.55124L8.12256 7.55124Z" fill="#0D1140"/>
<path d="M15.6733 7.55109H22.8049L30.3559 7.55109L38.3264 7.55109V6.58035e-05L30.3559 6.58035e-05L22.8049 6.58035e-05H15.6733V7.55109Z" fill="#0D1140"/>
<path d="M38.3267 7.55124V15.1023H45.8777V7.55124L38.3267 7.55124Z" fill="#0D1140"/>
<path d="M22.8049 45.3062H15.6733V52.8572H22.8049H30.3559H38.3264V45.3062H30.3559H22.8049Z" fill="#0D1140"/>
<path d="M38.3267 37.7551V45.3062H45.8777V37.7551H38.3267Z" fill="#0D1140"/>
<path d="M8.12243 22.2334L8.12243 15.1019H0.571411L0.571411 22.2334L0.571411 29.7845L0.571411 37.755H8.12243V29.7845V22.2334Z" fill="#0D1140"/>
<path d="M45.8774 29.7845V37.755H53.4285V29.7845V22.2334V15.1019H45.8774V22.2334V29.7845Z" fill="#0D1140"/>
<path d="M8.12256 37.7551V45.3062H15.6736V37.7551H8.12256Z" fill="#0D1140"/>
</svg>
