<svg width="35" height="70" viewBox="0 0 35 70" fill="none" xmlns="http://www.w3.org/2000/svg">
<path d="M4.375 8.75039H0V13.1256H4.375V8.75039ZM8.75 8.75039H4.375V13.1256H8.75V8.75039ZM4.375 13.1256H0V17.5008H4.375V13.1256ZM8.75 13.1256H4.375V17.5008H8.75V13.1256ZM4.375 17.5008H0V21.876H4.375V17.5008ZM8.75 17.5008H4.375V21.876H8.75V17.5008ZM30.625 13.1256H26.25V17.5008H30.625V13.1256ZM35 13.1256H30.625V17.5008H35V13.1256ZM30.625 17.5008H26.25V21.876H30.625V17.5008ZM35 17.5008H30.625V21.876H35V17.5008ZM13.125 8.75039H8.75V13.1256H13.125V8.75039ZM26.25 8.75039H21.875V13.1256H26.25V8.75039ZM30.625 8.75039H26.25V13.1256H30.625V8.75039ZM35 8.75039H30.625V13.1256H35V8.75039ZM17.5 0H13.125V4.37519H17.5V0ZM21.875 0H17.5V4.37519H21.875V0ZM26.25 0H21.875V4.37519H26.25V0ZM13.125 0H8.75V4.37519H13.125V0ZM17.5 4.37519H13.125V8.75039H17.5V4.37519ZM21.875 4.37519H17.5V8.75039H21.875V4.37519ZM26.25 4.37519H21.875V8.75039H26.25V4.37519ZM30.625 4.37519H26.25V8.75039H30.625V4.37519ZM13.125 4.37519H8.75V8.75039H13.125V4.37519ZM8.75 4.37519H4.375V8.75039H8.75V4.37519ZM8.75 21.876H4.375V26.2512H8.75V21.876ZM13.125 21.876H8.75V26.2512H13.125V21.876ZM17.5 21.876H13.125V26.2512H17.5V21.876ZM4.375 21.876H0V26.2512H4.375V21.876ZM8.75 26.2512H4.375V30.6264H8.75V26.2512ZM13.125 26.2512H8.75V30.6264H13.125V26.2512ZM17.5 26.2512H13.125V30.6264H17.5V26.2512ZM4.375 26.2512H0V30.6264H4.375V26.2512ZM13.1266 48.1256H8.75156V52.5008H13.1266V48.1256ZM17.5016 48.1256H13.1266V52.5008H17.5016V48.1256ZM21.8766 48.1256H17.5016V52.5008H21.8766V48.1256ZM8.75156 48.1256H4.37656V52.5008H8.75156V48.1256ZM13.1266 52.5008H8.75156V56.876H13.1266V52.5008ZM17.5016 52.5008H13.1266V56.876H17.5016V52.5008ZM21.8766 52.5008H17.5016V56.876H21.8766V52.5008ZM8.75156 52.5008H4.37656V56.876H8.75156V52.5008ZM13.1266 56.8752H8.75156V61.2504H13.1266V56.8752ZM17.5016 56.8752H13.1266V61.2504H17.5016V56.8752ZM21.8766 56.8752H17.5016V61.2504H21.8766V56.8752ZM13.1266 61.2504H8.75156V65.6256H13.1266V61.2504ZM17.5016 61.2504H13.1266V65.6256H17.5016V61.2504ZM21.8766 61.2504H17.5016V65.6256H21.8766V61.2504ZM17.5016 65.6248H13.1266V70H17.5016V65.6248ZM21.8766 65.6248H17.5016V70H21.8766V65.6248ZM8.75156 61.2504H4.37656V65.6256H8.75156V61.2504ZM26.25 21.876H21.875V26.2512H26.25V21.876ZM30.625 21.876H26.25V26.2512H30.625V21.876ZM35 21.876H30.625V26.2512H35V21.876ZM17.5008 35.0008H13.1258V39.376H17.5008V35.0008ZM21.8758 35.0008H17.5008V39.376H21.8758V35.0008ZM17.5008 39.376H13.1258V43.7512H17.5008V39.376ZM21.8758 39.376H17.5008V43.7512H21.8758V39.376ZM17.5008 30.6256H13.1258V35.0008H17.5008V30.6256ZM21.8758 30.6256H17.5008V35.0008H21.8758V30.6256ZM17.5008 43.7512H13.1258V48.1264H17.5008V43.7512ZM21.8758 43.7512H17.5008V48.1264H21.8758V43.7512ZM21.875 21.876H17.5V26.2512H21.875V21.876ZM26.25 26.2512H21.875V30.6264H26.25V26.2512ZM30.625 26.2512H26.25V30.6264H30.625V26.2512ZM35 26.2512H30.625V30.6264H35V26.2512ZM21.875 26.2512H17.5V30.6264H21.875V26.2512Z" fill="white"/>
</svg>
