<svg width="100" height="100" viewBox="0 0 100 100" fill="none" xmlns="http://www.w3.org/2000/svg">
<path d="M43.3531 22.965H38.8701V27.447H43.3531V22.965Z" fill="white"/>
<path d="M38.869 18.482H34.387V22.965H38.869V18.482Z" fill="white"/>
<path d="M34.387 14H29.905V18.482H34.387V14Z" fill="white"/>
<path d="M61.337 22.965H56.854V27.447H61.337V22.965Z" fill="white"/>
<path d="M65.8189 18.482H61.3369V22.965H65.8189V18.482Z" fill="white"/>
<path d="M70.3021 14H65.8201V18.482H70.3021V14Z" fill="white"/>
<path d="M92.724 18.482H88.241H83.76H79.278H74.796V22.965H70.304V27.447H65.822V31.93H61.34V36.422H56.857V31.949V27.467H52.357V27.457H47.853V27.447H43.353V31.93V36.422H38.87V31.93H34.388V27.447H29.906V22.965H25.413V18.482H20.931H16.449H11.967H7.483H3V22.965V27.447V31.93V36.422V40.904V45.386H7.483V49.868H11.966V54.37H16.448V58.852H11.966H7.483V63.335V67.816V72.308H11.966V76.789V81.271H16.448V85.754H20.93H25.412H29.904H34.386V81.271H38.868V76.789H43.351V81.271H47.851V81.282H52.352V81.292H56.852V76.81V76.789H61.335V81.271H65.817V85.754H70.299H74.791H79.273H83.755V81.271H88.236V76.789V72.308H92.719V67.816V63.335V58.852H88.236H83.755V54.37H88.236V49.868H92.719V45.386H97.201V40.904V36.422V31.93V27.447V22.965V18.482H92.724ZM52.354 31.949V36.441V40.923V45.406V49.888V54.39V58.872V63.353V67.835V72.327V76.801H47.853V76.79V72.309V67.817V63.336V58.853V54.371V49.868V45.386V40.904V36.422V31.94H52.354V31.949Z" fill="white"/>
</svg>
