<svg width="100" height="100" viewBox="0 0 100 100" fill="none" xmlns="http://www.w3.org/2000/svg">
<path d="M72.999 34.76V30.91H69.169V27.07H65.31V23.22V19.38V15.53V11.69V7.84V4H61.48H57.62H53.79H49.93V4.005H46.07H42.24H38.38H34.55V7.845V11.695V15.535V19.385V23.225V27.075H30.69V30.915H26.86V34.765H23V38.605V42.455V46.295V50.145V54.004V57.845V61.695V65.536H26.86V69.386H30.69V73.226H34.55V77.076V80.916V84.767V88.607V92.458V96.298H38.38H42.24H46.07H49.93V96.292H53.79H57.62H61.479H65.309V92.452V88.602V84.762V80.912V77.072V73.221H69.168V69.381H72.998V65.53H76.858V61.69V57.84V54V50.14V46.29V42.45V38.6V34.76H72.999ZM38.38 19.385V15.535V11.695V7.845H42.24H46.07H49.93V7.84H53.79H57.62H61.479V11.69V15.53V19.38V23.22H57.62H53.79H49.93V23.225H46.07H42.24H38.38V19.385ZM61.48 77.071V80.911V84.761V88.601V92.451H57.62H53.79H49.93V92.457H46.07H42.24H38.38V88.606V84.766V80.915V77.075V73.225H42.24H46.07H49.93V73.22H53.79H57.62H61.479V77.071H61.48ZM61.48 50.145H57.62H53.79H49.93V54.004H46.07V50.145H42.24V46.295H46.07V42.455V38.605V34.765V30.915H49.93V34.765V38.605V42.455V46.295H53.79H57.62H61.479V50.145H61.48Z" fill="white"/>
</svg>
