<svg width="100" height="100" viewBox="0 0 100 100" fill="none" xmlns="http://www.w3.org/2000/svg">
<path d="M58.2769 15.3858V9.6929V4H52.5828V9.6929V15.3858V21.0787H58.2769V26.7716V32.4645H52.5828V38.1574V43.8742H58.2769V38.1574H63.9698V32.4645V26.7716V21.0787V15.3858H58.2769Z" fill="white"/>
<path d="M35.4693 15.3858V9.6929V4H29.7764V9.6929V15.3858V21.0787H35.4693V26.7716V32.4645H29.7764V38.1574V43.8742H35.4693V38.1574H41.1622V32.4645V26.7716V21.0787V15.3858H35.4693Z" fill="white"/>
<path d="M86.7401 55.2708H81.0472V49.5779H75.3543H69.6614H63.9685H58.2756H52.5803H46.8527H41.1598H35.4669H29.774H24.0787H18.3858H12.6929H7V55.2708V60.9637V66.6578H12.6929V72.3507V78.0448H18.3858V83.7377H24.0787V89.4306H29.774V95.1235H35.4669H41.1598H46.8527H52.5803H58.2756V89.4306H63.9685V83.7377H69.6614H75.3543H81.0472H86.7401V78.0448H92.433V72.3507V66.6578V60.9637V55.2708H86.7401ZM86.7401 66.6578V72.3507H81.0472V78.0448H75.3543V72.3507V66.6578H81.0472V60.9637H86.7401V66.6578Z" fill="white"/>
</svg>
