<svg width="100" height="100" viewBox="0 0 100 100" fill="none" xmlns="http://www.w3.org/2000/svg">
<path d="M78.549 59.859H74.69H70.85V63.689H67H63.158V67.549H59.308V71.379H55.468V75.239H51.618V71.379V67.549V63.689V59.859V56H55.468V59.859H59.308H63.158H67V56H70.85V52.17H74.69V48.31V44.45V40.62H70.85V36.76H74.69V32.93H78.549V29.07V25.24V21.38V17.55H74.69V13.69H70.85H67H63.158V9.86H59.308V6H55.468H51.618H47.758H43.928H40.068V9.86H36.238V13.69H32.38H28.55H24.69V17.55H20.85V21.38V25.24V29.07V32.93H24.69V36.76H28.55V40.62H24.69V44.45V48.31V52.17H28.55V56H32.38V59.859H36.239H40.069H43.929V56H47.759V59.859V63.689V67.549V71.379V75.239H43.929V71.379H40.069V67.549H36.239V63.689H32.38H28.55V59.859H24.69H20.85H17V63.689V67.549V71.379V75.239H20.85H24.69V79.069H28.55V82.928V86.758H32.38H36.239V90.618H40.069H43.929H47.759V94.448H51.619V90.618H55.469H59.309H63.159V86.758H67.001H70.851V82.928V79.069H74.69V75.239H78.549H82.379V71.379V67.549V63.689V59.859H78.549ZM43.93 44.45V40.62H40.07V36.76V32.93V29.07H43.93V25.24H47.76H51.62H55.47V29.07H59.31V32.93V36.76V40.62H55.47V44.45H51.62H47.76H43.93ZM43.93 86.759H40.07V82.929H36.24H32.38V79.07V75.24H28.55V71.38H24.69H20.85V67.55V63.69H24.69V67.55H28.55H32.38V71.38H36.239V75.24H40.069V79.07H43.929V82.929H47.759V86.759H43.93ZM78.549 67.549V71.379H74.69H70.85V75.239H67V79.069V82.928H63.158H59.308V86.758H55.468H51.618V82.928H55.468V79.069H59.308V75.239H63.158V71.379H67V67.549H70.85H74.69V63.689H78.549V67.549Z" fill="white"/>
<path d="M47.7599 40.62H51.6199V36.759H55.4689V32.93H51.6199V29.069H47.7599V32.93H43.9299V36.759H47.7599V40.62Z" fill="white"/>
</svg>
