<svg width="100" height="100" viewBox="0 0 100 100" fill="none" xmlns="http://www.w3.org/2000/svg">
<path d="M78.542 27.072V23.221V19.381H74.691V15.531H70.85V11.69H67V7.84H63.16V4H59.31H55.47H51.621H47.761H43.921H40.071H36.231V7.84H32.381V11.69H28.541V15.531H24.691V19.381H20.85V23.221V27.072H17V30.912V34.762V38.602V42.462H20.85V46.292V50.151H24.691V54.002H28.542V57.842H32.382V61.692V65.533H36.232V69.383V73.223V77.074V80.914V84.764V88.604H40.072V92.464H43.922V96.294H47.762H51.622H55.473V92.464H59.313V88.604H63.163V84.764V80.914V77.074V73.223V69.383V65.533H67.003V61.692V57.842H70.853V54.002H74.691V50.151H78.542V46.292V42.462H82.382V38.602V34.762V30.912V27.072H78.542ZM59.311 80.912V84.762H55.471V88.602H51.621V92.462H47.761V88.602H43.921V84.762H40.071V80.912V77.072H43.921H47.761H51.621H55.472H59.312V80.912H59.311ZM59.311 38.601H55.471V42.461H51.621V46.291V50.15V54.001V57.841V61.691V65.532H47.761V61.691V57.841V54.001V50.15V46.291V42.461H43.921V38.601H40.071V34.761H43.921V38.601H47.761V42.461H51.621V38.601H55.472V34.761H59.312V38.601H59.311Z" fill="white"/>
</svg>
