<svg width="100" height="100" viewBox="0 0 100 100" fill="none" xmlns="http://www.w3.org/2000/svg">
<path d="M62.004 48.31V44.45H65.865V40.62H69.695V36.76H73.554V32.92H77.384V29.07H81.243V25.23H85.083V21.38H88.933V17.54H85.083V13.69H81.243V9.85H77.384H73.554V6H69.695H65.865H62.004H58.174H54.315H50.465H46.625H42.775V9.85H38.933H35.083V13.69H31.243H27.384V17.54H23.554V21.38H19.695V25.23V29.07H15.865V32.92V36.76V40.62H12.004V44.45V48.31V52.15H12V56.01V59.84H15.859V63.699V67.539V71.389H19.689V75.23V79.08H23.548V82.921H27.378V86.771H31.239H35.079V90.611H38.929H42.769V94.461H46.619H50.459H54.309H58.17H62H65.859H69.689H73.548V90.611H77.378H81.239V86.771H85.079V82.921H88.929V79.08H85.079V75.23H81.239V71.389H77.378V67.539H73.548V63.699H69.689V59.84H65.859V56.01H62V52.15H58.174V48.31H62.004ZM50.465 25.23V29.07V32.92H46.625H42.775H38.933V29.07V25.23V21.38H42.775H46.625H50.465V25.23Z" fill="white"/>
<path d="M46.6259 25.23H42.7759V29.07H46.6259V25.23Z" fill="white"/>
</svg>
