<svg width="100" height="100" viewBox="0 0 100 100" fill="none" xmlns="http://www.w3.org/2000/svg">
<path d="M85.059 29.07V25.22H81.209V21.38V17.53H77.369V13.69H73.519H69.679V9.84H65.83H61.99V6H58.139H54.299H50.45H46.6H42.76H38.91V9.84H35.07H31.22V13.69H27.38H23.53V17.53H19.69V21.38V25.22H15.84V29.07H12V32.91V36.76V40.6V44.46V48.29V52.151V56.001V59.841V63.691V67.531H15.84V71.382H19.69V75.222H23.53V79.073H27.38H31.22V82.913V86.763V90.603V94.462H35.071H38.911H42.762V90.622V86.772H46.602V90.622V94.462H50.45H54.3V90.622V86.772H58.14V90.622V94.462H61.991H65.831H69.682V90.6V86.76V82.91V79.07H73.522H77.372V75.22H81.212V71.38H85.062V67.53H88.902V63.69V59.84V56V52.15V48.29V44.46V40.6V36.76V32.91V29.07H85.059ZM38.91 48.29V52.151V56.001V59.841H35.07H31.22H27.38H23.53V56.001V52.151V48.29V44.46H27.38H31.22H35.071H38.911V48.29H38.91ZM58.139 67.53V71.381V75.221H54.299V71.381V67.53H50.45H46.6V71.381V75.221H42.76V71.381V67.53V63.69H46.6V59.84H50.45H54.3V63.69H58.14V67.53H58.139ZM77.37 48.29V52.151V56.001V59.841H73.52H69.68H65.83H61.99V56.001V52.151V48.29V44.46H65.83H69.681H73.521H77.371V48.29H77.37Z" fill="white"/>
<path d="M65.8301 48.29V52.151V56.001H69.6801H73.5201V52.151V48.29H69.6801H65.8301Z" fill="white"/>
<path d="M27.3799 48.29V52.151V56.001H31.2199H35.0699V52.151V48.29H31.2199H27.3799Z" fill="white"/>
</svg>
