<svg width="100" height="100" viewBox="0 0 100 100" fill="none" xmlns="http://www.w3.org/2000/svg">
<path d="M92.451 30.9V27.07V23.21H88.591V19.38H84.761V15.52H80.902V11.69H77.072V7.83H73.212H69.372V4H65.522H61.68H57.83H53.99H50.14H46.289H42.449H38.599H34.758H30.908V7.83H27.068H23.208V11.689H19.378V15.519H15.52V19.379H11.69V23.209H7.83V27.068V30.898H4V34.758V38.588V42.448V46.277V50.14V54V57.83V61.689V65.519V69.379H7.83V73.209V77.068H11.69V80.898H15.52V84.758H19.379V88.588H23.209V92.448H27.069H30.909V96.277H34.759H38.6H42.45H46.29H50.14H53.991H57.831H61.681H65.522H69.372V92.448H73.212H77.072V88.588H80.902V84.758H84.761V80.898H88.591V77.068H92.451V73.21V69.38H96.281V65.52V61.69V57.83V54V50.14V46.28V42.451V38.591V34.761V30.901H92.451V30.9ZM23.209 46.28V42.451V38.591V34.761V30.901H27.069H30.909H34.759H38.6V34.761V38.591V42.451V46.28H34.759H30.909H27.069H23.209ZM73.21 73.21H69.37V77.069H65.52H61.68V80.899H57.83H53.99H50.14H46.289H42.449H38.599V77.069H34.758H30.908V73.21H27.068V69.38H30.908H34.758V73.21H38.599H42.449V77.069H46.289H50.14H53.991H57.831V73.21H61.681H65.522V69.38H69.372H73.212V73.21H73.21ZM77.071 34.76V38.59V42.45V46.279H73.211H69.371H65.521H61.68V42.45V38.59V34.76V30.9H65.521H69.371H73.211H77.071V34.76Z" fill="white"/>
<path d="M65.521 34.76V38.59V42.451H69.37H73.21V38.59V34.76H69.37H65.521Z" fill="white"/>
<path d="M34.7591 42.451V38.59V34.76H30.9101H27.0701V38.59V42.451H30.9101H34.7591Z" fill="white"/>
</svg>
