<svg width="100" height="100" viewBox="0 0 100 100" fill="none" xmlns="http://www.w3.org/2000/svg">
<path d="M90.72 38.34H85.96H81.2H76.44V33.579H71.68H66.91H62.15V28.819V24.06H57.39V19.289V14.529V9.77H52.63V9.76V5H47.85V9.76H43.089V14.52V19.279V24.05H38.33V28.81V33.569H33.57H28.799H24.04V38.33H19.28H14.52H9.759H5V43.09H9.759V47.85H14.52V52.63H19.28V57.39H24.04V62.16H28.799V66.92H24.04V71.68V76.44V81.2H19.28V85.96V90.72V95.48H24.04H28.799H33.57V90.72H38.33V85.96H43.089V81.2H47.85V76.44H52.63V76.449V81.21H57.39V85.97H62.15V90.73H66.91V95.489H71.68H76.44H81.2V90.73V85.97V81.21H76.44V81.209V76.449V71.69V66.93H71.68V62.17H76.44V57.4H81.2V52.64H85.96V47.86H90.72V43.1H95.48V38.34H90.72Z" fill="white"/>
</svg>
